<?xml version="1.0" standalone="no"?>
<!DOCTYPE svg PUBLIC "-//W3C//DTD SVG 20010904//EN"
 "http://www.w3.org/TR/2001/REC-SVG-20010904/DTD/svg10.dtd">
<svg version="1.0" xmlns="http://www.w3.org/2000/svg"
 width="500.000000pt" height="500.000000pt" viewBox="0 0 500.000000 500.000000"
 preserveAspectRatio="xMidYMid meet">
<metadata>
Created by potrace 1.11, written by Peter Selinger 2001-2013
</metadata>
<g transform="translate(0.000000,500.000000) scale(0.100000,-0.100000)"
fill="#000000" stroke="none">
<path d="M1156 4720 c-66 -33 -77 -69 -21 -65 36 2 37 1 39 -50 1 -25 46 -31
106 -15 49 13 85 61 69 92 -27 50 -129 70 -193 38z m77 3 c-7 -2 -19 -2 -25 0
-7 3 -2 5 12 5 14 0 19 -2 13 -5z"/>
<path d="M1720 4538 c-47 -5 -135 -10 -196 -12 -80 -2 -122 -7 -148 -20 -22
-10 -45 -14 -58 -10 -16 5 -20 3 -15 -9 4 -12 -1 -15 -26 -14 -18 0 -48 -7
-67 -16 -19 -9 -62 -23 -94 -32 -45 -13 -56 -19 -45 -26 10 -8 8 -9 -8 -4 -13
3 -23 3 -23 -2 0 -4 -14 -9 -30 -10 -44 -3 -134 -54 -118 -66 9 -6 8 -7 -4 -3
-10 3 -41 -6 -70 -20 -29 -14 -44 -22 -34 -19 15 4 17 3 7 -9 -6 -8 -20 -12
-30 -9 -11 3 -28 -4 -40 -16 -12 -12 -28 -21 -36 -21 -8 0 -12 -6 -9 -14 4
-11 0 -13 -17 -9 -15 4 -20 3 -15 -5 5 -8 0 -12 -13 -12 -13 0 -19 -5 -15 -14
3 -8 0 -17 -7 -22 -7 -4 -15 -2 -17 5 -3 9 -7 9 -18 0 -8 -6 -14 -8 -14 -4 0
6 -18 -6 -110 -75 -71 -53 -169 -152 -163 -166 3 -8 1 -14 -3 -14 -5 0 -20
-16 -33 -35 -13 -19 -29 -35 -35 -35 -13 -1 -96 -134 -96 -155 0 -8 -4 -15 -9
-15 -14 0 -23 -33 -10 -40 15 -10 2 -50 -17 -50 -16 0 -19 -37 -3 -42 6 -2 1
-14 -10 -27 -12 -13 -21 -31 -22 -40 -1 -9 -3 -34 -5 -55 -2 -29 5 -53 28 -95
48 -86 127 -181 151 -181 4 0 7 -16 7 -35 0 -34 10 -42 43 -36 14 3 81 -22 98
-36 9 -7 19 -10 24 -6 4 5 5 3 2 -3 -7 -12 50 -56 96 -73 20 -8 27 -7 27 2 0
16 78 46 112 42 23 -3 66 -22 78 -35 20 -22 73 -50 95 -50 15 0 24 -4 20 -10
-3 -6 1 -13 10 -16 11 -5 25 3 41 20 14 14 31 26 39 26 8 0 15 4 15 9 0 5 17
12 38 16 31 6 34 9 17 15 -11 4 -30 4 -42 -1 -13 -5 -30 -6 -38 -3 -9 4 -25
-2 -36 -12 -17 -16 -19 -16 -13 -1 6 17 78 42 93 32 5 -3 11 0 13 5 2 7 16 6
40 -5 48 -19 53 -19 77 6 13 14 21 17 26 9 8 -13 85 65 85 87 0 6 4 15 10 18
6 3 7 -1 4 -9 -4 -10 -1 -16 9 -16 8 0 17 6 20 14 8 20 46 17 79 -6 14 -10 31
-18 36 -18 6 0 12 -5 14 -10 2 -6 21 -17 43 -25 37 -12 40 -12 43 6 5 28 17
23 18 -7 2 -34 10 -39 38 -26 19 8 26 8 30 -1 2 -7 5 -2 5 11 1 19 -3 22 -19
17 -31 -10 -44 4 -24 27 15 15 16 23 6 38 -8 14 -8 20 0 22 16 6 28 121 14
130 -8 5 -8 8 0 8 6 0 25 13 43 29 18 16 38 28 45 25 7 -3 23 7 36 21 13 14
31 25 39 25 9 0 31 14 49 31 17 16 32 28 32 25 0 -3 24 12 53 34 28 22 57 38
64 36 8 -3 10 1 6 11 -4 11 -2 14 8 11 8 -3 13 -11 11 -18 -2 -7 3 -10 12 -7
9 4 18 2 21 -3 12 -19 91 -11 110 10 21 24 35 16 71 -42 35 -56 31 -131 -10
-197 -17 -28 -36 -51 -43 -51 -6 0 -13 -3 -15 -7 -9 -21 -148 -70 -261 -93
-31 -6 -65 -19 -74 -28 -15 -16 -14 -17 16 -26 28 -8 31 -12 26 -37 -6 -27 8
-48 20 -29 3 5 1 10 -4 10 -6 0 -11 5 -11 10 0 6 11 10 25 10 20 0 24 -5 22
-22 -1 -18 3 -23 20 -23 11 0 25 -3 29 -7 4 -5 16 -8 28 -8 15 0 17 -3 8 -12
-9 -9 -16 -7 -32 7 -28 25 -28 -3 0 -33 11 -12 20 -26 20 -32 0 -5 5 -10 11
-10 6 0 9 -7 5 -15 -4 -11 2 -15 20 -15 19 0 25 -4 21 -14 -3 -8 6 -27 20 -42
20 -22 27 -24 34 -13 6 10 8 5 6 -16 -1 -20 3 -30 13 -30 24 0 64 -47 65 -74
0 -30 25 -42 25 -12 0 12 5 21 11 21 6 0 9 -9 6 -20 -3 -11 -1 -23 5 -26 5 -3
7 -12 4 -20 -3 -8 1 -14 9 -14 18 0 20 -36 3 -46 -8 -5 -6 -11 6 -20 10 -7 15
-18 11 -24 -6 -9 -2 -9 13 -1 29 15 37 14 21 -5 -7 -9 -9 -18 -3 -22 5 -4 9
-11 10 -17 2 -26 27 -75 39 -75 7 0 22 -15 34 -32 19 -30 19 -34 5 -45 -14
-11 -13 -13 10 -19 24 -6 31 -15 27 -37 -1 -5 2 -6 7 -3 4 2 14 1 22 -5 12 -7
11 -9 -5 -9 -11 -1 1 -8 28 -17 67 -23 50 -29 -25 -9 -137 37 -271 116 -451
264 -72 60 -80 64 -95 49 -9 -9 -13 -20 -9 -24 4 -3 13 -1 19 5 7 7 16 12 20
12 17 0 7 -21 -24 -51 -18 -17 -32 -36 -30 -42 2 -6 -4 -17 -14 -24 -10 -7
-14 -19 -10 -28 4 -12 0 -19 -14 -22 -11 -3 -18 -9 -15 -13 3 -4 -14 -28 -36
-54 -22 -25 -37 -46 -33 -46 4 0 1 -8 -7 -17 -8 -10 -20 -29 -26 -43 -6 -14
-23 -50 -36 -80 -14 -30 -28 -73 -32 -95 -4 -22 -13 -47 -20 -55 -16 -18 -32
-120 -18 -120 5 0 14 5 21 12 7 7 12 8 12 2 0 -19 -39 -35 -60 -24 -38 20 -51
65 -53 178 -1 83 4 127 22 197 36 142 68 208 131 274 52 53 108 85 168 96 23
4 42 9 42 11 0 2 -17 22 -37 44 -33 35 -43 40 -83 40 -70 0 -288 -37 -360 -61
-98 -32 -98 -32 -176 -122 -9 -10 -25 -34 -36 -53 -31 -53 -46 -40 -22 20 5
14 3 18 -7 14 -8 -2 -18 -19 -24 -36 -5 -18 -13 -32 -17 -32 -11 0 -10 -48 2
-55 6 -4 5 -14 -3 -27 -10 -17 -9 -22 4 -31 14 -9 15 -15 3 -55 -21 -69 -18
-79 26 -102 37 -19 44 -30 52 -80 5 -33 -28 -112 -64 -151 -21 -23 -38 -47
-38 -54 0 -8 -8 -11 -20 -8 -14 4 -20 0 -20 -11 0 -9 6 -16 14 -16 8 0 17 -7
20 -16 9 -23 8 -27 -9 -20 -8 3 -15 1 -15 -4 0 -6 -7 -10 -17 -10 -20 0 -123
-52 -123 -62 0 -4 4 -8 8 -8 15 0 227 76 252 91 33 18 201 15 241 -5 20 -10
29 -11 32 -2 7 17 45 -32 79 -99 55 -113 101 -145 198 -141 33 1 55 -1 49 -5
-15 -9 41 -4 64 6 13 5 15 10 7 15 -8 5 -7 9 5 13 9 4 13 3 10 -2 -3 -5 -1
-12 5 -16 5 -3 10 0 10 7 0 10 2 10 9 0 5 -9 12 13 20 62 6 42 15 84 20 94 6
9 17 34 26 54 9 20 42 63 73 95 128 130 197 168 328 177 67 5 68 5 22 -5 -29
-7 -48 -17 -48 -25 0 -8 -10 -14 -22 -15 -21 0 -21 -1 -4 -8 18 -7 16 -9 -12
-22 -18 -8 -32 -19 -32 -25 0 -6 -14 -23 -31 -37 -23 -19 -30 -32 -26 -47 4
-17 0 -22 -23 -27 -27 -5 -30 -9 -36 -64 -4 -33 -11 -62 -16 -65 -6 -4 -7 2
-3 15 4 12 2 21 -4 21 -6 0 -11 -7 -11 -15 0 -8 -4 -15 -9 -15 -5 0 -7 -9 -4
-20 3 -11 0 -20 -6 -20 -6 0 -11 -11 -11 -24 0 -15 -7 -26 -19 -29 -10 -2 -21
-17 -25 -33 -4 -16 -15 -38 -25 -49 -19 -22 -25 -61 -11 -70 5 -3 7 -11 4 -18
-7 -19 41 -60 63 -53 10 3 44 30 76 60 54 49 88 66 158 78 24 5 105 -51 116
-80 10 -24 11 -25 12 -6 1 17 9 23 37 26 19 2 37 0 40 -4 3 -4 -9 -8 -25 -8
-37 0 -37 0 -11 -45 11 -19 15 -35 10 -35 -6 0 -10 -8 -10 -19 0 -10 -8 -29
-19 -42 -10 -13 -33 -52 -51 -86 -33 -63 -37 -89 -29 -195 4 -45 11 -48 25
-10 6 15 27 36 47 47 l37 20 25 -30 c29 -33 40 -66 32 -96 -3 -11 1 -36 9 -56
11 -25 12 -39 5 -46 -6 -6 -11 -19 -11 -30 0 -10 -5 -17 -12 -15 -14 5 -36
-20 -58 -67 -8 -16 -20 -37 -28 -47 -10 -12 -10 -18 -1 -23 7 -5 16 -1 21 9
11 20 38 21 38 1 0 -8 5 -15 10 -15 6 0 10 9 10 20 0 11 5 20 11 20 7 0 18 8
26 18 8 9 12 11 8 5 -4 -8 0 -13 9 -13 19 0 21 11 4 28 -6 6 -8 15 -4 19 4 4
11 1 17 -7 8 -13 10 -13 18 0 6 8 14 11 18 6 4 -5 2 -11 -5 -13 -6 -3 -12 -10
-12 -17 0 -7 -8 -20 -18 -29 -15 -13 -21 -14 -31 -4 -11 10 -12 8 -7 -10 4
-12 2 -24 -4 -28 -12 -7 -60 -110 -60 -128 0 -7 -18 -47 -39 -90 -25 -50 -34
-76 -24 -73 8 3 19 6 24 6 5 0 9 11 9 25 0 14 5 25 10 25 6 0 10 7 10 15 0 8
11 38 24 67 14 29 31 67 38 85 7 17 15 30 18 28 3 -2 15 10 25 26 11 16 23 29
28 29 4 0 7 8 7 18 0 14 2 15 10 2 5 -8 10 -10 10 -3 0 6 21 18 47 27 50 17
69 15 187 -25 45 -15 82 -20 151 -18 51 1 98 -2 105 -6 8 -5 11 -4 6 3 -3 6
-2 13 3 16 5 4 12 2 16 -4 3 -5 14 -10 23 -10 15 0 15 2 2 10 -12 8 -11 10 8
10 29 0 28 5 -7 42 -16 18 -49 66 -73 107 -38 66 -43 84 -47 148 -2 52 2 85
14 115 34 85 109 154 150 137 11 -4 15 -8 8 -8 -7 -1 -10 -8 -6 -17 4 -11 9
-12 16 -5 16 16 30 13 23 -4 -3 -9 1 -18 10 -22 8 -3 13 -12 10 -19 -3 -8 0
-11 10 -7 13 5 13 8 -1 23 -27 30 -16 31 15 2 17 -16 30 -34 30 -40 0 -6 6
-13 13 -15 9 -4 9 -6 0 -6 -7 -1 -17 8 -23 20 l-11 20 -20 -22 c-24 -27 -25
-40 -2 -16 16 16 18 15 29 -13 14 -33 34 -40 34 -12 1 12 6 8 16 -12 27 -48
15 -150 -24 -212 -25 -39 -32 -63 -32 -100 0 -38 -5 -53 -27 -76 -24 -25 -25
-28 -7 -28 19 1 74 42 74 57 0 5 14 14 30 20 17 6 30 18 30 27 0 9 5 16 10 16
20 0 53 39 47 54 -4 9 -1 15 5 13 7 -1 14 7 16 18 2 11 10 24 18 28 8 4 14 17
14 27 0 11 5 20 12 20 6 0 9 3 5 6 -3 4 0 13 8 21 8 8 15 23 15 34 0 10 5 19
10 19 6 0 10 6 10 13 0 7 9 23 20 35 15 16 19 29 14 49 -4 21 -3 24 5 13 5 -8
11 -12 13 -10 21 33 28 55 23 73 -4 15 -3 18 3 9 13 -19 18 -12 77 122 15 33
24 68 22 77 -3 10 -2 17 2 16 3 -1 23 15 44 35 32 31 46 37 95 42 31 3 83 10
115 14 32 5 57 4 57 -1 0 -4 7 -1 16 7 8 9 20 16 25 16 36 0 -27 125 -95 187
-51 47 -55 48 -177 72 -219 42 -276 73 -284 156 -4 41 -3 45 5 20 8 -26 9 -23
6 19 -2 28 0 43 4 35 6 -9 10 -6 14 12 13 67 15 90 6 84 -6 -3 -10 -1 -10 4 0
6 4 11 9 11 5 0 9 10 9 23 2 69 15 138 24 125 7 -9 8 -8 4 6 -7 21 -9 549 -2
581 3 11 5 23 5 26 1 4 13 18 27 33 15 14 24 26 20 26 -4 0 3 10 14 23 35 36
72 105 64 118 -5 9 -2 10 10 6 11 -4 19 -1 23 10 4 10 26 45 50 79 27 39 41
68 37 78 -4 11 -2 15 7 11 9 -3 28 15 49 46 19 27 56 79 82 114 25 35 49 73
53 84 3 11 12 20 18 18 7 -1 11 4 9 11 -1 8 2 11 8 7 5 -3 22 12 37 34 16 22
33 40 38 41 14 0 45 37 38 44 -4 3 -1 6 6 6 7 0 38 26 70 58 74 74 170 162
178 162 3 0 22 16 42 35 50 48 102 90 129 104 12 7 20 16 17 22 -4 5 1 9 9 9
8 0 31 11 50 24 19 13 74 43 123 67 88 43 116 66 106 83 -4 5 0 6 7 1 18 -11
30 14 30 67 0 39 -4 50 -31 72 -17 14 -36 26 -42 27 -7 0 -48 6 -91 13 -92 15
-113 14 -210 -15 -318 -93 -572 -203 -741 -319 -95 -65 -192 -124 -286 -173
-79 -41 -120 -71 -192 -139 -80 -77 -96 -88 -128 -88 -37 0 -136 -26 -154 -40
-25 -20 -140 -40 -229 -40 -84 0 -101 3 -134 23 -27 18 -58 25 -118 30 -88 7
-146 23 -126 36 7 4 12 18 12 32 0 48 12 99 23 92 5 -3 7 -2 4 4 -3 5 -2 26 3
46 5 26 4 37 -4 37 -6 0 -5 4 3 9 9 6 11 18 7 34 -3 14 -2 29 4 32 10 6 11 16
10 107 -1 64 -36 177 -74 243 -62 106 -231 217 -356 235 -77 11 -222 10 -340
-2z m70 -114 c45 -22 107 -87 125 -131 9 -21 15 -67 15 -111 0 -63 -4 -82 -26
-119 -15 -26 -31 -42 -39 -40 -7 3 -16 2 -21 -3 -13 -12 -105 -39 -139 -42
-16 -1 -50 8 -74 20 -50 25 -55 26 -47 13 13 -20 -57 -4 -81 19 -43 41 -51 62
-58 150 -5 73 -3 91 14 127 24 48 94 109 148 129 46 17 134 12 183 -12z m2410
-708 c0 -2 -8 -10 -17 -17 -16 -13 -17 -12 -4 4 13 16 21 21 21 13z m-1645
-126 c3 -6 -1 -7 -9 -4 -18 7 -21 14 -7 14 6 0 13 -4 16 -10z m-1048 -406 c-3
-3 -12 -4 -19 -1 -8 3 -5 6 6 6 11 1 17 -2 13 -5z m-323 -88 c-3 -9 -10 -16
-15 -16 -5 0 -4 9 3 20 14 22 21 20 12 -4z m-885 -17 c17 -6 31 -15 31 -20 0
-6 -7 -6 -18 0 -10 6 -27 9 -38 7 -10 -2 -13 -1 -5 1 12 4 12 6 0 14 -19 12
-8 11 30 -2z m1191 -9 c0 -5 -5 -10 -11 -10 -5 0 -7 5 -4 10 3 6 8 10 11 10 2
0 4 -4 4 -10z m-434 -25 c-11 -8 -22 -12 -25 -9 -6 6 19 24 34 24 6 -1 1 -7
-9 -15z m-166 -25 c0 -5 -5 -10 -11 -10 -5 0 -7 5 -4 10 3 6 8 10 11 10 2 0 4
-4 4 -10z m1140 -290 c0 -5 -4 -10 -10 -10 -5 0 -10 5 -10 10 0 6 5 10 10 10
6 0 10 -4 10 -10z m60 -70 c0 -13 -1 -13 -10 0 -5 8 -10 22 -10 30 0 13 1 13
10 0 5 -8 10 -22 10 -30z m-915 -300 c-3 -5 -12 -10 -18 -10 -7 0 -6 4 3 10
19 12 23 12 15 0z m-67 -60 c-30 -45 -58 -70 -58 -52 0 8 79 102 86 102 2 0
-11 -22 -28 -50z m1215 0 c-4 -14 2 -27 17 -40 26 -23 19 -24 -30 -5 -20 8
-27 14 -17 14 13 1 18 8 17 24 -3 32 -1 39 9 33 5 -3 7 -15 4 -26z m937 -60
c0 -5 -4 -10 -10 -10 -5 0 -10 5 -10 10 0 6 5 10 10 10 6 0 10 -4 10 -10z
m-860 -20 c0 -5 -5 -10 -11 -10 -5 0 -7 5 -4 10 3 6 8 10 11 10 2 0 4 -4 4
-10z m731 -14 c-10 -12 -9 -18 6 -33 10 -10 28 -19 38 -19 11 -1 28 -5 38 -9
13 -6 17 -2 17 16 0 22 0 22 14 3 14 -18 15 -18 21 -1 4 9 5 24 2 32 -4 8 -2
17 3 20 19 12 9 -60 -11 -85 -11 -14 -18 -19 -14 -12 3 6 2 12 -4 12 -15 0
-23 -18 -11 -25 5 -3 10 -13 10 -21 0 -9 7 -22 15 -30 21 -22 19 -36 -5 -29
-24 8 -27 -10 -4 -19 9 -3 14 -13 10 -21 -3 -8 0 -18 7 -22 7 -5 -1 -10 -23
-14 l-35 -6 38 -2 c23 0 36 -5 32 -11 -10 -17 -51 -11 -80 12 -23 18 -25 22
-11 30 9 5 16 14 16 19 0 6 -4 7 -10 4 -6 -3 -7 1 -4 9 4 10 1 16 -7 16 -10 0
-10 3 -1 12 15 15 16 48 1 48 -6 0 -8 -9 -4 -20 4 -11 2 -20 -4 -20 -6 0 -13
11 -17 25 -5 20 -11 24 -26 19 -18 -5 -18 -4 -8 16 8 15 8 25 1 34 -6 8 -8 22
-5 32 5 14 2 12 -14 -6 -12 -14 -21 -21 -22 -16 0 5 7 18 17 28 9 10 13 21 10
24 -4 4 -16 -4 -28 -17 l-21 -24 14 25 c15 24 58 53 67 45 2 -3 -2 -11 -8 -19z
m-744 -12 c-3 -3 -12 -4 -19 -1 -8 3 -5 6 6 6 11 1 17 -2 13 -5z m639 -96 c15
-16 33 -150 25 -193 -10 -52 -15 -60 -51 -69 -24 -7 -24 -6 5 18 17 14 24 26
17 26 -6 0 -22 -11 -34 -25 -12 -14 -26 -25 -32 -25 -6 0 -19 -28 -29 -61 -14
-47 -30 -74 -70 -116 -55 -58 -104 -90 -117 -76 -4 4 -13 25 -20 46 -12 37
-11 40 19 71 18 18 32 42 32 52 -1 27 -28 160 -46 224 -28 95 -28 97 -15 80
10 -12 11 -11 7 8 -6 28 -6 27 27 -3 28 -26 46 -32 46 -15 0 6 7 10 16 10 9 0
29 9 45 21 17 12 42 25 57 30 26 8 108 6 118 -3z m125 -50 c1 -7 1 -19 0 -26
-1 -8 4 -21 11 -30 12 -15 11 -16 -5 -3 -10 8 -16 22 -14 33 3 10 1 18 -4 18
-5 0 -9 5 -9 10 0 15 20 12 21 -2z m356 -25 c-3 -10 -5 -4 -5 12 0 17 2 24 5
18 2 -7 2 -21 0 -30z m-1077 -13 c0 -5 -7 -10 -16 -10 -8 0 -12 5 -9 10 3 6
10 10 16 10 5 0 9 -4 9 -10z m210 -41 c-6 -11 -9 -25 -6 -32 2 -7 5 -5 5 5 1
9 5 19 10 22 5 3 8 -2 7 -12 0 -10 6 -16 17 -16 16 2 21 -13 20 -54 -1 -7 5
-11 13 -8 10 4 14 -3 14 -24 0 -17 6 -39 12 -50 18 -29 -9 -76 -40 -72 -14 2
-21 -1 -20 -10 5 -20 -64 -9 -89 15 -13 11 -23 24 -23 28 0 10 -36 86 -65 138
-30 52 -30 57 -7 57 9 0 28 4 42 9 23 7 24 7 10 -10 -14 -17 -13 -17 10 -10
14 4 32 13 40 20 8 7 24 15 35 18 11 2 21 5 23 6 1 0 -2 -8 -8 -20z m-1039
-102 c-10 -9 -11 -8 -5 6 3 10 9 15 12 12 3 -3 0 -11 -7 -18z m-35 -32 c-9 -9
-16 -13 -16 -8 0 12 22 34 28 28 2 -2 -3 -11 -12 -20z m-496 -10 c0 -1 -9 -5
-19 -8 -13 -3 -18 -1 -14 9 4 10 33 10 33 -1z m1011 -108 c-10 -9 -11 -8 -5 6
3 10 9 15 12 12 3 -3 0 -11 -7 -18z m-331 -227 c0 -5 -4 -10 -10 -10 -5 0 -10
5 -10 10 0 6 5 10 10 10 6 0 10 -4 10 -10z m313 -45 c-7 -19 -33 -20 -33 -1 0
15 20 26 32 19 4 -2 5 -10 1 -18z m337 4 c0 -5 5 -7 10 -4 6 3 10 1 10 -4 0
-16 -16 -13 -30 4 -9 10 -9 15 -1 15 6 0 11 -5 11 -11z m1221 -216 c-12 -20
-14 -14 -5 12 4 9 9 14 11 11 3 -2 0 -13 -6 -23z m-1120 -325 c11 -21 11 -22
-4 -9 -18 15 -23 3 -7 -17 5 -7 3 -6 -6 2 -9 8 -14 22 -11 30 8 21 14 20 28
-6z m-41 -162 c0 -3 -4 -8 -10 -11 -5 -3 -10 -1 -10 4 0 6 5 11 10 11 6 0 10
-2 10 -4z m124 -20 c-6 -15 -24 -23 -24 -11 0 8 24 34 28 30 1 -1 0 -10 -4
-19z"/>
<path d="M1574 4395 c-17 -13 -34 -34 -37 -45 -4 -17 -2 -19 21 -14 15 4 32
13 39 21 10 12 12 12 15 -4 3 -10 1 -28 -3 -40 -5 -14 -4 -23 4 -27 7 -2 1 -5
-12 -5 -24 -1 -24 -1 -5 -16 37 -28 149 -11 195 31 29 26 24 68 -12 98 -27 23
-40 26 -102 26 -61 0 -77 -4 -103 -25z m148 -2 c10 -9 18 -26 17 -37 -1 -18
-2 -18 -8 4 -4 14 -18 30 -31 37 -14 7 -19 13 -11 13 8 0 23 -7 33 -17z"/>
<path d="M1550 4300 c0 -5 5 -10 11 -10 5 0 7 5 4 10 -3 6 -8 10 -11 10 -2 0
-4 -4 -4 -10z"/>
<path d="M3197 2058 c-4 -31 -2 -47 7 -37 8 10 15 69 7 69 -5 0 -11 -15 -14
-32z"/>
<path d="M3190 1959 c0 -5 5 -7 10 -4 6 3 10 8 10 11 0 2 -4 4 -10 4 -5 0 -10
-5 -10 -11z"/>
<path d="M2930 2090 c-8 -5 -11 -12 -7 -17 5 -4 12 -1 16 6 5 7 13 11 19 7 6
-3 13 -2 17 4 8 13 -25 13 -45 0z"/>
<path d="M2991 2088 c-1 -10 3 -18 9 -18 5 0 7 -7 4 -15 -4 -8 -10 -12 -15 -9
-5 3 -9 2 -9 -3 0 -4 -3 -18 -6 -31 -5 -18 -3 -21 10 -16 9 3 16 13 16 22 0
12 3 13 11 5 8 -8 6 -18 -6 -37 -10 -15 -13 -26 -7 -26 18 0 34 39 26 63 -4
12 -7 33 -5 46 2 13 -1 21 -7 17 -6 -3 -13 0 -15 6 -3 8 -6 6 -6 -4z"/>
<path d="M2935 2050 c3 -5 8 -10 11 -10 2 0 4 5 4 10 0 6 -5 10 -11 10 -5 0
-7 -4 -4 -10z"/>
<path d="M3030 1960 c-13 -9 -13 -11 0 -20 10 -6 11 -10 3 -10 -7 0 -13 -8
-13 -17 0 -14 -2 -15 -9 -5 -6 11 -10 10 -15 -4 -15 -40 27 -24 44 16 15 36
11 53 -10 40z"/>
<path d="M298 2993 c7 -3 16 -2 19 1 4 3 -2 6 -13 5 -11 0 -14 -3 -6 -6z"/>
<path d="M1305 2989 c-27 -5 -74 -10 -103 -11 -41 -2 -56 -7 -70 -25 -9 -13
-23 -23 -31 -23 -10 0 -12 -3 -5 -10 11 -11 64 3 74 20 3 5 54 17 113 26 59 9
107 20 107 25 0 10 -16 10 -85 -2z"/>
<path d="M600 2950 c-25 -10 -49 -16 -55 -14 -5 2 -16 -5 -24 -17 -11 -19 -11
-21 2 -16 9 3 35 11 59 17 24 7 48 16 55 21 7 7 13 5 16 -3 4 -9 6 -7 6 4 1
25 -9 26 -59 8z"/>
<path d="M1800 2920 c-8 -5 -10 -10 -5 -10 6 0 17 5 25 10 8 5 11 10 5 10 -5
0 -17 -5 -25 -10z"/>
<path d="M1830 2891 c0 -6 4 -13 10 -16 6 -3 7 1 4 9 -7 18 -14 21 -14 7z"/>
<path d="M1713 2393 c-7 -2 -13 -13 -13 -24 0 -10 -4 -19 -10 -19 -5 0 -10 -7
-10 -15 0 -8 -3 -15 -7 -15 -9 0 -43 -57 -43 -71 0 -5 5 -9 10 -9 6 0 10 9 10
21 0 15 5 19 15 15 8 -3 14 -2 14 2 -4 25 5 44 36 75 19 19 35 38 35 41 0 7
-19 7 -37 -1z"/>
<path d="M2155 2390 c3 -5 8 -10 11 -10 2 0 4 5 4 10 0 6 -5 10 -11 10 -5 0
-7 -4 -4 -10z"/>
<path d="M757 2314 c-12 -12 3 -22 24 -17 16 4 17 8 7 14 -16 10 -23 11 -31 3z"/>
<path d="M1606 2214 c-4 -9 -4 -19 -1 -22 2 -3 7 3 11 12 4 9 4 19 1 22 -2 3
-7 -3 -11 -12z"/>
<path d="M2270 2210 c8 -5 20 -10 25 -10 6 0 3 5 -5 10 -8 5 -19 10 -25 10 -5
0 -3 -5 5 -10z"/>
<path d="M1585 2166 c-3 -9 -7 -23 -10 -31 -2 -8 -1 -15 4 -15 10 0 25 50 17
58 -3 2 -8 -3 -11 -12z"/>
<path d="M1556 2094 c-4 -9 -4 -19 -1 -22 2 -3 7 3 11 12 4 9 4 19 1 22 -2 3
-7 -3 -11 -12z"/>
<path d="M935 1740 c3 -5 10 -10 16 -10 5 0 9 5 9 10 0 6 -7 10 -16 10 -8 0
-12 -4 -9 -10z"/>
<path d="M3225 1050 c-3 -5 -1 -10 4 -10 6 0 11 5 11 10 0 6 -2 10 -4 10 -3 0
-8 -4 -11 -10z"/>
<path d="M3280 1033 c0 -4 5 -15 10 -23 8 -13 10 -13 10 2 0 9 -4 20 -10 23
-5 3 -10 3 -10 -2z"/>
<path d="M3155 860 c-3 -5 -1 -10 4 -10 6 0 11 5 11 10 0 6 -2 10 -4 10 -3 0
-8 -4 -11 -10z"/>
<path d="M3166 824 c-4 -9 -4 -19 -1 -22 2 -3 7 3 11 12 4 9 4 19 1 22 -2 3
-7 -3 -11 -12z"/>
<path d="M3111 814 c0 -11 3 -14 6 -6 3 7 2 16 -1 19 -3 4 -6 -2 -5 -13z"/>
<path d="M3130 784 c0 -16 28 -50 35 -42 4 4 -2 17 -14 29 -12 13 -21 18 -21
13z"/>
<path d="M3190 761 c0 -5 7 -11 15 -15 9 -3 15 0 15 9 0 8 -7 15 -15 15 -8 0
-15 -4 -15 -9z"/>
<path d="M2305 599 c-4 -6 -5 -12 -2 -15 2 -3 7 2 10 11 7 17 1 20 -8 4z"/>
<path d="M2280 405 c0 -17 2 -18 24 -9 23 9 20 24 -4 24 -11 0 -20 -7 -20 -15z"/>
</g>
</svg>
